<mxfile host="app.diagrams.net" agent="Mozilla/5.0 (Windows NT 10.0; Win64; x64) AppleWebKit/537.36 (KHTML, like Gecko) Chrome/131.0.0.0 Safari/537.36 OPR/116.0.0.0" version="26.0.14">
  <diagram name="Página-1" id="KbXSGd8BQL1ttHwS0XMe">
    <mxGraphModel dx="1632" dy="761" grid="1" gridSize="10" guides="1" tooltips="1" connect="1" arrows="1" fold="1" page="1" pageScale="1" pageWidth="827" pageHeight="1169" background="none" math="0" shadow="1">
      <root>
        <mxCell id="0" />
        <mxCell id="1" parent="0" />
        <mxCell id="dsQgrmiMSyN-VsnkwqVX-1" value="Atingir a média 7" style="rounded=1;whiteSpace=wrap;html=1;labelBackgroundColor=none;fillColor=#182E3E;strokeColor=#FFFFFF;fontColor=#FFFFFF;" vertex="1" parent="1">
          <mxGeometry x="330" y="60" width="160" height="80" as="geometry" />
        </mxCell>
        <mxCell id="dsQgrmiMSyN-VsnkwqVX-18" style="edgeStyle=orthogonalEdgeStyle;rounded=0;orthogonalLoop=1;jettySize=auto;html=1;entryX=0.5;entryY=0;entryDx=0;entryDy=0;labelBackgroundColor=none;strokeColor=#23445D;fontColor=default;" edge="1" parent="1" source="dsQgrmiMSyN-VsnkwqVX-2" target="dsQgrmiMSyN-VsnkwqVX-16">
          <mxGeometry relative="1" as="geometry" />
        </mxCell>
        <mxCell id="dsQgrmiMSyN-VsnkwqVX-2" value="N1,N2" style="shape=card;whiteSpace=wrap;html=1;labelBackgroundColor=none;fillColor=#182E3E;strokeColor=#FFFFFF;fontColor=#FFFFFF;" vertex="1" parent="1">
          <mxGeometry x="330" y="190" width="160" height="80" as="geometry" />
        </mxCell>
        <mxCell id="dsQgrmiMSyN-VsnkwqVX-23" style="edgeStyle=orthogonalEdgeStyle;rounded=0;orthogonalLoop=1;jettySize=auto;html=1;entryX=1;entryY=0.75;entryDx=0;entryDy=0;exitX=0.517;exitY=0.765;exitDx=0;exitDy=0;exitPerimeter=0;" edge="1" parent="1" source="dsQgrmiMSyN-VsnkwqVX-4" target="dsQgrmiMSyN-VsnkwqVX-6">
          <mxGeometry relative="1" as="geometry">
            <mxPoint x="640" y="450" as="sourcePoint" />
            <mxPoint x="530" y="580" as="targetPoint" />
            <Array as="points">
              <mxPoint x="642" y="588" />
              <mxPoint x="640" y="588" />
            </Array>
          </mxGeometry>
        </mxCell>
        <mxCell id="dsQgrmiMSyN-VsnkwqVX-4" value="Passou" style="shape=tape;whiteSpace=wrap;html=1;labelBackgroundColor=none;fillColor=#182E3E;strokeColor=#FFFFFF;fontColor=#FFFFFF;" vertex="1" parent="1">
          <mxGeometry x="580" y="370" width="120" height="85" as="geometry" />
        </mxCell>
        <mxCell id="dsQgrmiMSyN-VsnkwqVX-22" style="edgeStyle=orthogonalEdgeStyle;rounded=0;orthogonalLoop=1;jettySize=auto;html=1;exitX=0.25;exitY=1;exitDx=0;exitDy=0;exitPerimeter=0;entryX=0;entryY=0.75;entryDx=0;entryDy=0;" edge="1" parent="1" source="dsQgrmiMSyN-VsnkwqVX-5" target="dsQgrmiMSyN-VsnkwqVX-6">
          <mxGeometry relative="1" as="geometry" />
        </mxCell>
        <mxCell id="dsQgrmiMSyN-VsnkwqVX-5" value="Não passou" style="shape=tape;whiteSpace=wrap;html=1;labelBackgroundColor=none;fillColor=#182E3E;strokeColor=#FFFFFF;fontColor=#FFFFFF;" vertex="1" parent="1">
          <mxGeometry x="150" y="370" width="130" height="95" as="geometry" />
        </mxCell>
        <mxCell id="dsQgrmiMSyN-VsnkwqVX-6" value="fim" style="rounded=1;whiteSpace=wrap;html=1;labelBackgroundColor=none;fillColor=#182E3E;strokeColor=#FFFFFF;fontColor=#FFFFFF;" vertex="1" parent="1">
          <mxGeometry x="314" y="550" width="200" height="50" as="geometry" />
        </mxCell>
        <mxCell id="dsQgrmiMSyN-VsnkwqVX-12" style="edgeStyle=orthogonalEdgeStyle;rounded=0;orthogonalLoop=1;jettySize=auto;html=1;entryX=0.5;entryY=0;entryDx=0;entryDy=0;labelBackgroundColor=none;strokeColor=#23445D;fontColor=default;" edge="1" parent="1" target="dsQgrmiMSyN-VsnkwqVX-6">
          <mxGeometry relative="1" as="geometry">
            <mxPoint x="410" y="490" as="sourcePoint" />
          </mxGeometry>
        </mxCell>
        <mxCell id="dsQgrmiMSyN-VsnkwqVX-8" style="edgeStyle=orthogonalEdgeStyle;rounded=0;orthogonalLoop=1;jettySize=auto;html=1;entryX=0.5;entryY=0;entryDx=0;entryDy=0;entryPerimeter=0;labelBackgroundColor=none;strokeColor=#23445D;fontColor=default;" edge="1" parent="1" target="dsQgrmiMSyN-VsnkwqVX-2">
          <mxGeometry relative="1" as="geometry">
            <mxPoint x="410" y="140" as="sourcePoint" />
          </mxGeometry>
        </mxCell>
        <mxCell id="dsQgrmiMSyN-VsnkwqVX-10" style="edgeStyle=orthogonalEdgeStyle;rounded=0;orthogonalLoop=1;jettySize=auto;html=1;exitX=1;exitY=0.5;exitDx=0;exitDy=0;entryX=0;entryY=0.65;entryDx=0;entryDy=0;entryPerimeter=0;labelBackgroundColor=none;strokeColor=#23445D;fontColor=default;" edge="1" parent="1" source="dsQgrmiMSyN-VsnkwqVX-17" target="dsQgrmiMSyN-VsnkwqVX-4">
          <mxGeometry relative="1" as="geometry">
            <mxPoint x="480" y="430" as="sourcePoint" />
          </mxGeometry>
        </mxCell>
        <mxCell id="dsQgrmiMSyN-VsnkwqVX-11" style="edgeStyle=orthogonalEdgeStyle;rounded=0;orthogonalLoop=1;jettySize=auto;html=1;entryX=1;entryY=0.58;entryDx=0;entryDy=0;entryPerimeter=0;exitX=0;exitY=0.5;exitDx=0;exitDy=0;labelBackgroundColor=none;strokeColor=#23445D;fontColor=default;" edge="1" parent="1" source="dsQgrmiMSyN-VsnkwqVX-17" target="dsQgrmiMSyN-VsnkwqVX-5">
          <mxGeometry relative="1" as="geometry">
            <mxPoint x="340" y="430" as="sourcePoint" />
          </mxGeometry>
        </mxCell>
        <mxCell id="dsQgrmiMSyN-VsnkwqVX-19" style="edgeStyle=orthogonalEdgeStyle;rounded=0;orthogonalLoop=1;jettySize=auto;html=1;entryX=0.5;entryY=0;entryDx=0;entryDy=0;labelBackgroundColor=none;strokeColor=#23445D;fontColor=default;" edge="1" parent="1" source="dsQgrmiMSyN-VsnkwqVX-16" target="dsQgrmiMSyN-VsnkwqVX-17">
          <mxGeometry relative="1" as="geometry" />
        </mxCell>
        <mxCell id="dsQgrmiMSyN-VsnkwqVX-16" value="Média= (N1+N2) /2" style="rounded=0;whiteSpace=wrap;html=1;labelBackgroundColor=none;fillColor=#182E3E;strokeColor=#FFFFFF;fontColor=#FFFFFF;" vertex="1" parent="1">
          <mxGeometry x="350" y="300" width="120" height="60" as="geometry" />
        </mxCell>
        <mxCell id="dsQgrmiMSyN-VsnkwqVX-21" value="" style="edgeStyle=orthogonalEdgeStyle;rounded=0;orthogonalLoop=1;jettySize=auto;html=1;labelBackgroundColor=none;strokeColor=#23445D;fontColor=default;" edge="1" parent="1" source="dsQgrmiMSyN-VsnkwqVX-17" target="dsQgrmiMSyN-VsnkwqVX-6">
          <mxGeometry relative="1" as="geometry" />
        </mxCell>
        <mxCell id="dsQgrmiMSyN-VsnkwqVX-17" value="Média &amp;gt;=7" style="rhombus;whiteSpace=wrap;html=1;labelBackgroundColor=none;fillColor=#182E3E;strokeColor=#FFFFFF;fontColor=#FFFFFF;" vertex="1" parent="1">
          <mxGeometry x="350" y="380" width="120" height="90" as="geometry" />
        </mxCell>
      </root>
    </mxGraphModel>
  </diagram>
</mxfile>
